<?xml version='1.0' encoding='iso-8859-1'?>
<svg version="1.1" xmlns="http://www.w3.org/2000/svg" viewBox="0 0 368.553 368.553" xmlns:xlink="http://www.w3.org/1999/xlink" enable-background="new 0 0 368.553 368.553">
  <path d="M229.474,45.198c-76.688,0-139.079,62.391-139.079,139.079c0,58.771,47.813,106.584,106.584,106.584  c58.771,0,106.584-47.813,106.584-106.584c0-38.561-31.372-69.933-69.933-69.933s-69.932,31.372-69.932,69.933  c0,4.143,3.358,7.5,7.5,7.5s7.5-3.357,7.5-7.5c0-30.29,24.642-54.933,54.932-54.933s54.933,24.643,54.933,54.933  c0,50.5-41.084,91.584-91.584,91.584s-91.584-41.084-91.584-91.584c0-68.417,55.662-124.079,124.079-124.079  s124.079,55.662,124.079,124.079c0,93.339-75.938,169.276-169.276,169.276C90.938,353.553,15,277.615,15,184.277  S90.938,15,184.277,15c4.143,0,7.5-3.357,7.5-7.5s-3.357-7.5-7.5-7.5C82.666,0,0,82.666,0,184.277s82.666,184.276,184.277,184.276  c101.61,0,184.276-82.666,184.276-184.276C368.553,107.588,306.163,45.198,229.474,45.198z"/>
</svg>
